<svg width="239" height="190" viewBox="0 0 239 190" fill="none" xmlns="http://www.w3.org/2000/svg">
<g clip-path="url(#clip0_1_10)">
<path d="M54.8667 85.3492C54.8667 81.5395 57.8 78.7324 61.4667 78.7324C65.1333 78.7324 68.0667 81.6064 68.0667 85.3492C68.0667 89.1588 65.1333 91.9659 61.4667 91.9659C57.8 91.9659 54.8667 89.092 54.8667 85.3492ZM66.6 73.4524C66.6 77.262 69.5333 80.0691 73.2 80.0691C76.8667 80.0691 79.8 77.1952 79.8 73.4524C79.8 69.6428 76.8667 66.8357 73.2 66.8357C69.5333 66.8357 66.6 69.6428 66.6 73.4524ZM82.6667 65.3653V77.262C91.9333 77.262 99.2 84.8145 99.2 94.7062C99.2 104.598 91.8667 112.15 82.6667 112.15C73.4 112.15 66.1333 104.598 66.1333 94.7062H53.2C53.2 111.148 66.2667 124.047 82.6667 124.047C99.0667 124.047 112.133 111.148 112.133 94.7062C112.133 78.2646 99.0667 65.3653 82.6667 65.3653ZM215.667 176.914V165.619H236.533V154.324H215.667V143.229H238.667V131.867H203V188.209H239V176.847H215.667V176.914ZM195.467 160.071C195.467 176.246 183.133 188.209 165.733 188.209H147.2V131.8H165.733C183.133 131.8 195.467 143.897 195.467 160.071ZM182.533 160.071C182.533 150.447 176.133 143.162 166.733 143.162H159.8V176.914H166.733C176.133 176.914 182.533 169.696 182.533 160.071ZM97.9333 166.555C97.9333 173.038 93.3333 177.85 87 177.85C80.6667 177.85 76.0667 173.038 76.0667 166.555V131.934H63.5333V166.354C63.5333 179.654 73.4667 189.412 87 189.412C100.533 189.412 110.467 179.587 110.467 166.354V131.934H97.9333V166.555ZM25 167.691H37.4667C36.3333 173.505 31.2 177.983 25.0667 177.983C18.2 177.983 12.6667 172.436 12.6667 164.349V155.994C12.6667 148.041 18.6 142.159 26.9333 142.159C33.4 142.159 39.2 145.702 41.0667 150.848L52.7333 146.771C49.5333 136.879 39 130.731 26.9333 130.731C11.6667 130.731 0.333333 141.023 0.333333 155.994V164.349C0.4 178.719 11 189.412 24.0667 189.412C32.2 189.412 39.4 185.269 43.6 178.852V188.276H54.6667V156.93H25V167.691ZM166.8 100.922V66.5015H154.267V101.122C154.267 107.605 149.667 112.418 143.333 112.418C137 112.418 132.4 107.605 132.4 101.122V66.5015H119.867V100.922C119.867 114.222 129.8 123.98 143.333 123.98C156.867 123.98 166.8 114.222 166.8 100.922ZM21.2 122.844H33.8V101.457L54.9333 66.5015H40.6667L27.3333 89.5598L14.2 66.5015H0L21.1333 101.59V122.844H21.2ZM147.8 1.06937H105.133V12.4314H147.8V1.06937ZM99.7333 46.0498H76.3333V34.7546H97.2V23.4593H76.3333V12.3646H99.3333V1.00254H63.6667V57.345H99.6667V46.0498H99.7333ZM24.0667 58.6149C32.2 58.6149 39.4 54.4711 43.6 48.0549V57.4787H54.6667V26.1327H25V36.9601H37.4667C36.3333 42.7748 31.2 47.2528 25.0667 47.2528C18.2 47.2528 12.6667 41.7055 12.6667 33.6183V25.2639C12.6667 17.3104 18.6 11.4289 26.9333 11.4289C33.4 11.4289 39.2 14.9712 41.0667 20.1175L52.7333 16.0406C49.5333 6.14888 39 0 26.9333 0C11.6667 0 0.333333 10.2927 0.333333 25.2639V33.6183C0.4 47.9212 11 58.6149 24.0667 58.6149ZM195.533 108.608L189 101.724L195.467 94.7062L188.933 87.8221L195.4 80.8043L188.867 73.9203L196.067 66.5015H183L175.933 73.9871L182.467 80.8712L176 87.8889L182.533 94.773L176.067 101.791L182.6 108.675L176.133 115.693L183.067 122.911H196.2L189.133 115.626L195.533 108.608ZM134.267 158.401C136.133 156.73 139.267 153.923 139.267 148.709C139.267 143.563 136.133 140.689 134.267 139.018C134.2 138.951 134.133 138.885 134.067 138.818C133.133 137.815 133 136.412 132.933 135.743V131.8H120.267V137.08C120.267 137.147 120.267 137.214 120.267 137.28C120.267 142.427 123.4 145.301 125.267 146.972C126.6 148.175 126.6 148.242 126.6 148.709C126.6 149.177 126.6 149.244 125.267 150.447C123.467 152.051 120.533 154.725 120.333 159.537C120.333 159.604 120.333 159.737 120.333 159.804C120.333 159.871 120.333 159.871 120.333 159.938C120.333 160.005 120.333 160.005 120.333 160.071C120.333 160.138 120.333 160.272 120.333 160.339C120.533 165.151 123.533 167.824 125.267 169.428C126.6 170.631 126.6 170.698 126.6 171.166C126.6 171.634 126.6 171.701 125.267 172.904C123.4 174.575 120.267 177.382 120.267 182.595C120.267 182.662 120.267 182.729 120.267 182.796V188.076H132.933V184.132C132.933 183.464 133.133 182.06 134.067 181.058C134.133 180.991 134.2 180.924 134.267 180.857C136.133 179.186 139.267 176.379 139.267 171.166C139.267 166.02 136.133 163.146 134.267 161.475C133.067 160.406 132.933 160.205 132.933 159.871C133 159.67 133.133 159.47 134.267 158.401ZM120.133 57.4118H132.733V46.9186H120.133V57.4118ZM132.8 31.9475H120.2V42.4407H132.8V31.9475ZM132.8 16.9094H120.2V27.4026H132.8V16.9094ZM228.333 122.844L213 101.323C220.467 98.9836 225.667 92.4337 225.667 84.4135C225.667 74.2544 217.267 66.5015 206.667 66.5015H199.267V77.9304H206.2C209.867 77.9304 212.733 80.8712 212.733 84.7476C212.733 88.6241 209.867 91.5649 206.2 91.5649H199.267V102.392L213 122.911H228.333V122.844Z" fill="#FF5533"/>
</g>
<defs>
<clipPath id="clip0_1_10">
<rect width="239" height="190" fill="white"/>
</clipPath>
</defs>
</svg>
