<svg width="336" height="85" viewBox="0 0 336 85" fill="none" xmlns="http://www.w3.org/2000/svg">
<path d="M330.352 72.4675C332.98 72.3218 335.243 74.3627 335.389 77.0595C335.535 79.6835 333.491 81.9431 330.79 82.0889C328.162 82.2347 325.899 80.1938 325.753 77.4969C325.753 77.424 325.753 77.3511 325.753 77.2782C325.753 74.6542 327.797 72.5404 330.352 72.4675ZM330.352 71.7386C327.286 71.7386 324.877 74.2169 324.877 77.2053C324.877 80.2666 327.359 82.672 330.352 82.672C333.345 82.672 335.827 80.1938 335.827 77.2053C335.9 74.2169 333.418 71.7386 330.352 71.7386ZM331.155 77.3511C331.812 77.2053 332.323 76.6222 332.323 75.8933C332.323 74.8729 331.447 74.4355 330.206 74.4355H328.6V79.9022H329.549V77.424H330.279L331.447 79.2462C331.812 79.8293 331.885 79.8293 332.396 79.8293H332.834V79.9022L331.155 77.3511ZM330.206 77.2782H329.549V74.8H330.133C331.082 74.8 331.447 75.1644 331.447 76.0391C331.447 76.9138 331.155 77.2782 330.206 77.2782Z" fill="#196C6E"/>
<path d="M93.248 16.7805H72.954V82.672H93.248V16.7805Z" fill="#196C6E"/>
<path d="M204.427 76.112C198.441 76.112 195.594 72.5404 195.594 66.4178V22.2471H211.8V16.7804H195.667V0.307556H176.176L175.227 16.7804H166.54V22.2471H175.227V65.6889C175.227 76.9138 181.651 84.2027 194.791 84.2027C204.646 84.2027 210.486 80.1938 212.895 74.8L211.946 73.7796C209.756 75.3102 207.128 76.1849 204.427 76.112Z" fill="#196C6E"/>
<path d="M246.913 15.3227C225.232 15.3227 211.508 30.4107 211.508 50.0907C211.508 69.6249 224.356 84.2027 246.475 84.2027C269.032 84.2027 281.88 69.1147 281.88 49.4347C281.807 29.9004 268.375 15.3227 246.913 15.3227ZM246.767 79.4649C235.89 79.4649 234.357 70.6453 234.357 49.5804C234.357 28.88 235.817 19.9147 246.621 19.9147C257.498 19.9147 259.031 28.88 259.031 49.872C258.958 70.4996 257.644 79.4649 246.767 79.4649Z" fill="#196C6E"/>
<path d="M310.277 28.1511L309.839 16.7804H290.129V82.672H310.496V29.9004C311.737 29.536 312.978 29.3173 314.292 29.3173C317.942 29.3173 322.103 30.7751 334.805 36.752L335.973 36.3147V17.8009C333.637 16.1245 330.79 15.2498 327.943 15.2498C322.176 15.3227 315.533 18.8942 310.277 28.1511Z" fill="#196C6E"/>
<path d="M140.187 74.8L142.523 82.672H159.897V31.9413C159.897 20.7164 151.064 15.2498 136.61 15.2498C126.901 15.2498 114.929 17.9467 106.753 20.6436L105.804 32.16L106.972 32.7431C122.521 22.32 127.12 19.9147 131.938 19.9147C137.413 19.9147 139.676 22.7573 139.676 28.7342V42.4373C116.681 47.1751 102.665 50.6738 102.665 66.272C102.665 76.9867 109.819 84.2027 121.353 84.2027C130.186 84.2027 136.756 80.048 140.187 74.8ZM122.74 62.5547C122.74 52.4231 126.171 49.872 139.749 47.0293V72.3947C137.267 74.3627 134.201 75.3831 131.062 75.2373C125.295 75.2373 122.74 71.9573 122.74 62.5547Z" fill="#196C6E"/>
<path d="M52.076 40.1778C58.9299 40.1778 64.486 34.6301 64.486 27.7867C64.486 20.9433 58.9299 15.3956 52.076 15.3956C45.2222 15.3956 39.666 20.9433 39.666 27.7867C39.666 34.6301 45.2222 40.1778 52.076 40.1778Z" fill="#196C6E"/>
<path d="M38.425 82.7449L44.922 68.24L22 16.7805H0.246002L29.665 82.7449H38.425Z" fill="#196C6E"/>
</svg>
