<svg width="385" height="106" viewBox="0 0 385 106" fill="none" xmlns="http://www.w3.org/2000/svg">
<path d="M154.58 27.1306C150.135 24.4961 145.123 23.1788 139.544 23.1788C134.286 23.1149 129.109 24.4808 124.566 27.1306C120.155 29.6947 116.521 33.4049 114.049 37.8673C111.504 42.4656 110.198 47.6467 110.261 52.9018C110.203 58.1734 111.508 63.3707 114.049 67.9901C116.493 72.4707 120.108 76.2041 124.509 78.7922C128.954 81.4293 133.966 82.7478 139.544 82.7478C145.123 82.7478 150.135 81.4293 154.58 78.7922C158.987 76.1987 162.618 72.4728 165.097 68.0017C167.673 63.3933 168.999 58.1919 168.943 52.9133C169.003 47.6513 167.677 42.4662 165.097 37.8789C162.604 33.4293 158.975 29.7204 154.58 27.1306ZM150.85 65.2761C149.433 66.8642 147.689 68.1262 145.737 68.9751C143.785 69.8239 141.672 70.2394 139.544 70.1928C134.945 70.1928 131.177 68.5732 128.239 65.3338C125.301 62.0945 123.832 57.9505 123.832 52.9018C123.832 47.9275 125.301 43.8206 128.239 40.5813C131.177 37.342 134.945 35.7274 139.544 35.7377C144.067 35.7377 147.835 37.3573 150.85 40.5967C153.865 43.836 155.372 47.9429 155.372 52.9172C155.372 57.8659 153.865 61.9856 150.85 65.2761ZM178.791 2.04363H192.358V81.1564H178.791V2.04363ZM306.318 2.04363H319.885V81.1564H306.318V2.04363ZM371.437 24.7587V53.5899C371.437 58.1875 370.25 61.7293 367.876 64.2152C365.502 66.7011 362.392 67.944 358.547 67.944C354.932 67.944 352.144 66.9266 350.183 64.8917C348.222 62.8569 347.241 59.4292 347.241 54.6086V24.7587H333.675V56.8575C333.675 64.843 335.502 70.7951 339.158 74.7136C342.814 78.632 347.841 80.5913 354.24 80.5913C358.237 80.5913 361.553 79.9314 364.188 78.6115C366.948 77.1962 369.376 75.2127 371.314 72.7915L371.425 73.1298V79.119C371.425 83.7935 370.238 87.3916 367.864 89.9133C365.491 92.4351 362.231 93.6973 358.085 93.6998C352.402 93.6998 348.685 91.6086 346.934 87.4262L335.72 93.1924C337.219 95.9912 339.275 98.4534 341.761 100.427C345.863 103.707 351.31 105.346 358.101 105.344C366.543 105.344 373.138 102.951 377.886 98.1667C382.634 93.3821 385.006 86.9956 385.004 79.0075V24.7587H371.437ZM287.552 12.6727C289.198 12.6521 290.811 13.1423 292.167 14.0758L297.935 4.50773C296.602 3.44791 295.137 2.56417 293.578 1.87833C291.353 0.853222 288.394 0.340668 284.703 0.340668C280.18 0.340668 276.393 1.82836 273.339 4.80373C270.286 7.77911 268.759 11.8667 268.759 17.0666V24.7549H259.607V36.6218H268.782V81.1564H282.349V36.6257H295.858V24.7587H282.349V18.6542C282.349 14.6666 284.084 12.6727 287.552 12.6727ZM244.475 28.4338C240.03 24.9279 234.416 23.1762 227.632 23.1788C221 23.1788 215.8 24.5883 212.031 27.4074C208.263 30.2264 205.6 34.455 204.044 40.0931L216.15 42.2881C216.673 39.7125 217.73 37.7212 219.322 36.3335C221.091 34.7958 223.71 34.027 227.179 34.027C234.1 34.027 237.561 37.4547 237.561 44.3101V44.9905L225.463 46.6858C217.173 47.816 211.388 50.02 208.109 53.2978C204.83 56.5755 203.197 60.5888 203.21 65.3377C203.145 68.5776 204.049 71.7632 205.805 74.4867C207.537 77.1251 209.961 79.2368 212.812 80.5913C215.846 82.0428 219.174 82.7767 222.537 82.7363C229.846 82.7363 235.083 80.5144 238.25 76.0705L239.722 81.1564H251.14V44.0872C251.145 37.1523 248.923 31.9345 244.475 28.4338ZM237.58 61.3782C237.58 64.6201 236.487 67.1623 234.3 69.005C232.113 70.8476 229.401 71.7702 226.163 71.7728C223.072 71.7728 220.636 71.1141 218.857 69.7969C218.015 69.2078 217.332 68.4197 216.869 67.5028C216.407 66.5859 216.178 65.5687 216.204 64.5419C216.204 62.2098 217.014 60.4159 218.634 59.1601C220.254 57.9043 222.836 57.0189 226.379 56.5038L237.569 54.8085L237.58 61.3782ZM85.4158 32.2779C78.0172 38.2979 66.5193 39.7586 50.5337 36.6641V2.1628H36.7631V33.2082C36.1171 33.016 35.4672 32.8238 34.8058 32.6124C22.4542 28.7682 8.36829 30.352 0.458191 32.9968L3.21923 44.7599C8.68362 42.488 21.3544 40.9811 31.2295 44.0641C33.1099 44.6523 34.9519 45.1904 36.7631 45.694V81.1487H50.5337V48.8193C55.4189 49.6902 60.3689 50.1467 65.331 50.184C73.0565 50.184 79.7284 48.877 85.4158 46.2783V81.1487H99.1902V2.1628H85.4158V32.2779Z" fill="#E6485C"/>
</svg>
